<svg xmlns="http://www.w3.org/2000/svg" xmlns:xlink="http://www.w3.org/1999/xlink" viewBox="0 0 244.21 244.21"><defs><style>.cls-1{fill:url(#linear-gradient);}.cls-2{fill:#fff;}.cls-3{fill:url(#linear-gradient-2);}</style><linearGradient id="linear-gradient" y1="122.11" x2="244.21" y2="122.11" gradientUnits="userSpaceOnUse"><stop offset="0" stop-color="#2adaff"/><stop offset="1" stop-color="#0700c2"/></linearGradient><linearGradient id="linear-gradient-2" x1="160.41" y1="97.03" x2="35.19" y2="30.09" xlink:href="#linear-gradient"/></defs><title>Logo</title><g id="Layer_2" data-name="Layer 2"><g id="Layer_2-2" data-name="Layer 2"><circle class="cls-1" cx="122.11" cy="122.11" r="122.11"/><path class="cls-2" d="M122.1,184.4a21,21,0,0,1-9.39-2.1,5.66,5.66,0,0,1-2.06-1.58,3.38,3.38,0,0,0-2.15-1.32L58.59,167.09c-5.49-1.36-11-2.76-16.45-4.12-3.84-.95-7.69-1.85-11.52-2.8a3.17,3.17,0,0,1-2.6-2.91c-.19-2.44,1.84-4,4.36-3.41l20.25,5q29,7.16,58,14.29a12.19,12.19,0,0,0,3,.28c6.08,0,12.16.1,18.23-.09a30.84,30.84,0,0,0,6.31-1.27q36.84-9.08,73.66-18.18c2.62-.65,4.66.9,4.46,3.4a3.16,3.16,0,0,1-2.62,2.89q-7.61,1.89-15.22,3.75l-23.45,5.82q-19.77,4.89-39.54,9.8a5.38,5.38,0,0,0-1.62,1,15.87,15.87,0,0,1-2.25,1.73A20.9,20.9,0,0,1,122.1,184.4Z"/><path class="cls-2" d="M110.8,168.34a50,50,0,0,0-5.85-3.47,86.42,86.42,0,0,0-8.57-4l-.54-.21-.6-.23c-17.38-6.63-35.4-7.75-53.87-7.14,18.43.19,36.24,2.79,53.47,8.92l.16.06c1.43.57,12.07,4.79,14.93,6.4a3.69,3.69,0,0,0,.33.18c1.17.68,2.36,1.33,3.54,2A22.69,22.69,0,0,0,110.8,168.34Zm-.9,0h0l0-.1Z"/><polygon class="cls-2" points="109.9 168.28 109.9 168.38 109.87 168.38 109.9 168.28"/><path class="cls-2" d="M99.21,163.7a1.62,1.62,0,0,1,2.06-.64,2,2,0,0,1,1.55,2.23c-.5-.64-.85-1.48-1.44-1.74S100,163.63,99.21,163.7Z"/><path class="cls-2" d="M102.07,165.05l-2.16-.83C100.9,163.31,101.6,163.57,102.07,165.05Z"/><polygon class="cls-2" points="109.9 168.28 109.9 168.38 109.87 168.38 109.9 168.28"/><path class="cls-2" d="M118.09,170.87a41,41,0,0,0-3.43-3.1,47.47,47.47,0,0,0-7.54-5.28c-2.12-1.17-4.19-2.38-6.38-3.41l-1.53-.7q-3.1-1.41-6.32-2.56c-2.14-.76-4.32-1.43-6.52-2-.86-.23-1.71-.44-2.57-.65a94.33,94.33,0,0,0-21.48-2.66c-6.1,0-12.21.3-18.32.47l-1.31.06a132.6,132.6,0,0,1,24-1.79c9.38.22,18.62,1.41,27.5,4.66a61.25,61.25,0,0,1,6.23,2.69,60.45,60.45,0,0,1,5.9,3.39c.94.62,1.89,1.21,2.81,1.85a39.6,39.6,0,0,1,6.52,5.89C116.25,168.42,118.09,170.87,118.09,170.87Z"/><path class="cls-2" d="M121.32,170.85l-2.82-3.4c-1.75-2.11-3.45-4.35-5.35-6.36a39.22,39.22,0,0,0-6.76-5.49,53.56,53.56,0,0,0-8.3-4.48,60.4,60.4,0,0,0-9-3.06l-.46-.12-1.12-.27a86.87,86.87,0,0,0-26.31-2c-6.21.47-12.39,1.27-18.59,1.91a.51.51,0,0,1-.5-.2c4.87-.84,9.72-1.77,14.6-2.47a111.87,111.87,0,0,1,20.44-1.22c8.94.35,17.64,1.78,25.7,6a38.11,38.11,0,0,1,17.05,18.08C120.42,168.77,120.89,169.8,121.32,170.85Z"/><path class="cls-2" d="M135.83,168.36c1.57-1.09,3.26-2,4.9-3a77.67,77.67,0,0,1,8.38-4l1.12-.46.54-.21.6-.23c17.38-6.63,35.4-7.75,53.87-7.14-18.43.19-36.24,2.79-53.47,8.92l-.16.06c-3.19,1.28-6.4,2.53-9.56,3.9s-6.21,3-9.24,4.67A21.52,21.52,0,0,1,135.83,168.36Zm.88,0h0l0-.1Z"/><path class="cls-2" d="M128.52,170.87c.84-.78,1.49-1.36,2.18-2s1.65-1.4,2.5-2.06c1.47-1.17,3-2.29,4.55-3.33a65.84,65.84,0,0,1,8.12-4.44l1.53-.7q3.1-1.41,6.32-2.56c2.14-.76,4.32-1.43,6.52-2,.86-.23,1.71-.44,2.57-.65a94.33,94.33,0,0,1,21.48-2.66c6.1,0,12.21.3,18.32.47l1.31.06a132.6,132.6,0,0,0-24-1.79c-9.38.22-18.62,1.41-27.5,4.66a64,64,0,0,0-17.57,10,40.19,40.19,0,0,0-3.89,3.83C130.36,168.42,128.52,170.87,128.52,170.87Z"/><path class="cls-2" d="M125.29,170.85c.31-.42.67-.8.93-1.12.78-.94,1.55-1.88,2.33-2.81a60.56,60.56,0,0,1,6.88-7.71,49.8,49.8,0,0,1,7.49-5.32,58.82,58.82,0,0,1,16.15-6.22,86.87,86.87,0,0,1,26.31-2c6.21.47,12.39,1.27,18.59,1.91a.51.51,0,0,0,.5-.2c-4.87-.84-9.72-1.77-14.6-2.47a111.87,111.87,0,0,0-20.44-1.22c-8.94.35-17.64,1.78-25.7,6A37.26,37.26,0,0,0,131,160.3q-.88,1.15-1.68,2.4l-.12.19c-.1.16-.19.32-.28.49A74.52,74.52,0,0,0,125.29,170.85Z"/><path class="cls-2" d="M168.84,101.53l0,0a5.91,5.91,0,0,1-1.5,1.24l-.44.26-4.4,2.54-53.95,31.14a5.67,5.67,0,0,1-8.51-4.91V63.94A5.66,5.66,0,0,1,108.53,59l58.79,34A5.67,5.67,0,0,1,168.84,101.53Z"/><path class="cls-3" d="M168.84,101.53l0,0a5.91,5.91,0,0,1-1.5,1.24l-.44.26-4.4,2.54L102.32,65.4l.88-2.47a5.14,5.14,0,0,1,3.43-2.13s59.28,34.36,60.44,35.51C168.89,97.68,168.84,101.53,168.84,101.53Z"/><path class="cls-2" d="M166.88,103.06l-58.35,33.68a5.67,5.67,0,0,1-8.51-4.91V63.94a5.7,5.7,0,0,1,.49-2.32,5.6,5.6,0,0,1,1.45.59L164,98.05A5.64,5.64,0,0,1,166.88,103.06Z"/></g></g></svg>